<?xml version="1.0" encoding="utf-8"?>
<!-- Generator: Adobe Illustrator 28.0.0, SVG Export Plug-In . SVG Version: 6.00 Build 0)  -->
<svg version="1.1" id="图层_1" xmlns="http://www.w3.org/2000/svg" xmlns:xlink="http://www.w3.org/1999/xlink" x="0px" y="0px"
	 viewBox="0 0 500 600" style="enable-background:new 0 0 500 600;" xml:space="preserve">
<style type="text/css">
	.st0{stroke:#000000;stroke-width:0.5;stroke-miterlimit:10;}
	.st1{font-family:'MicrosoftYaHei-Bold';}
	.st2{font-size:36px;}
	.st3{font-size:18px;}
	.st4{font-family:'MicrosoftYaHei';}
	.st5{font-size:14px;}
	.st6{fill:none;}
</style>
<text transform="matrix(1 0 0 1 73.4831 73.7763)" class="st0 st1 st2">没有记忆还怎么</text>
<g id="_图层_9_图像">
	<g>
		<path d="M114,187.5c1.3,0,2.6,0,3.9,0c0.5,0,0.7,0.2,0.7,0.7c0,0.6,0,1.2,0,1.9h-4.4c-0.5,1.5-0.8,3-1.4,4.3
			c-1.6,3.5-6.7,6.8-11.5,4.6c-2.1-0.9-4.1-2.1-6.1-3.1c-2.6-1.3-5.4-2.1-8.2-1c-2,0.7-3.9,1.8-5.9,2.7c-1.5,0.7-3,1.4-4.6,1.9
			c-4.2,1.2-9.8-1.8-10.7-7c-0.1-0.5-0.2-1.1-0.2-1.6c0-0.4-0.2-0.6-0.6-0.6c-0.9,0-1.9,0-2.8,0c-0.3,0-0.5,0-0.7,0v-2.6h4.1v-3.4
			h-4.1c0-0.8,0-1.6,0-2.4c0-0.1,0.4-0.3,0.6-0.4c1.1,0,2.3,0,3.5,0v-3.3h-4.1v-2.8h4.1V172c-1.1,0-2.2,0-3.4,0
			c-0.6,0-0.8-0.2-0.8-0.8c0-0.6,0-1.2,0-1.9h4.1v-3.5h-4.1v-2.7h4.1c-0.1-3.2,0.8-6,3.2-8.1c2.3-2,5-3.2,8.2-3.2V148h2.6v3.7h3.2
			c0-1,0-2,0-3c0-0.5,0.1-0.7,0.6-0.7c0.7,0,1.3,0,2,0v3.7h3.2V148h2.6v3.7h3.1c0-1,0-2.1,0-3.1c0-0.4,0.2-0.6,0.6-0.6
			c0.7,0,1.3,0,2.1,0v3.8h3.2c0-0.9,0-1.9,0-2.8c0-1.1-0.2-1,1-1c0.5,0,1,0,1.6,0v3.7c6.9,0.6,11,3.9,11.3,11.2h4.6v2.7
			c-1.2,0-2.4,0-3.6,0c-1.1,0-1.1,0-1.1,1.1c0,0.7,0,1.4,0.1,2.1c0,0,0,0.1,0.1,0.2h4.5v2.7H114v3.5c1.3,0,2.5,0,3.7,0
			c0.8,0,1,0.2,0.9,0.9c-0.1,0.5,0,1.1,0,1.7c-1.3,0-2.6,0.1-3.8,0c-0.7,0-0.9,0.2-0.9,0.9c0.1,0.8,0,1.7,0,2.6h4.6v2.6H114
			L114,187.5L114,187.5z M98.3,186.2c-0.4-1.4-0.8-2.6-1.1-3.9c-1.2-3.9-2.4-7.7-3.7-11.6c-0.5-1.5-1-3.2-1.9-4.5
			c-2.7-3.9-7.6-3.4-10.6-0.7c-1.6,1.4-2.3,3.3-2.9,5.4c-1.1,4.3-2.1,8.7-3.2,13.1c-0.2,0.7-0.3,1.4-0.5,2.2c1.4,0,2.6,0,3.8,0
			c0.2,0,0.5-0.3,0.6-0.5c0.5-1.6,0.9-3.2,1.3-4.8c0.1-0.5,0.3-0.7,0.8-0.7c3.5,0,7,0,10.5-0.1c0.5,0,0.7,0.2,0.9,0.7
			c0.5,1.4,0.9,2.9,1.4,4.3c0.4,1.1,0.4,1.1,1.6,1.1C96.3,186.2,97.2,186.2,98.3,186.2L98.3,186.2z M104.8,177.9
			C104.8,177.9,104.7,177.9,104.8,177.9c-0.1-2.4-0.1-4.9-0.1-7.3c0-0.7-0.2-0.9-0.9-0.8c-0.7,0-1.5,0-2.2,0c-0.7,0-0.9,0.2-0.9,0.9
			c0,4.7,0,9.3,0,14c0,0.3,0,0.6,0.1,0.9c0.1,0.5,0.3,0.8,0.9,0.8c0.7,0,1.3,0,2,0c1,0,1.1-0.1,1.1-1.1
			C104.8,182.7,104.8,180.3,104.8,177.9L104.8,177.9z M105.2,164.6c0-1.7-1-2.9-2.7-2.9c-1.3,0-2.5,1.2-2.6,2.6
			c0,1.6,1.1,2.9,2.5,2.9C104,167.2,105.2,166.1,105.2,164.6z"/>
		<path d="M91.2,177.5h-9.7c0.1-0.4,0.1-0.7,0.2-1c0.3-1.5,0.5-3,0.8-4.4c0.6-2.5,2.7-3.8,4.9-3c0.8,0.2,1.4,0.7,1.6,1.5
			c0.5,1.6,1,3.2,1.5,4.9C90.8,176,91,176.7,91.2,177.5L91.2,177.5z"/>
	</g>
</g>
<g>
	<g>
	</g>
</g>
<text transform="matrix(1 0 0 1 136.4056 155.7701)" class="st1 st3">持久化记忆</text>
<text transform="matrix(1 0 0 1 134.3156 183.4842)"><tspan x="0" y="0" class="st4 st5">实现记忆的长期存储与调用，减少重复信息传输，</tspan><tspan x="0" y="21" class="st4 st5">让 AI 能基于历史对话、操作持续学习</tspan></text>
<g id="_图层_9_图像_00000113330354806300843590000001270733074513533059_">
	<g>
		<path d="M400.9,75.4c1.6,0,3.1,0,4.6,0c0.6,0,0.9,0.2,0.8,0.8c-0.1,0.7,0,1.4,0,2.2h-5.2c-0.6,1.8-0.9,3.6-1.6,5.1
			c-1.9,4.2-7.9,8-13.7,5.4c-2.5-1.1-4.8-2.5-7.3-3.7c-3.1-1.5-6.4-2.4-9.8-1.2c-2.4,0.9-4.6,2.1-7,3.2c-1.8,0.8-3.6,1.7-5.5,2.3
			c-4.9,1.4-11.6-2.1-12.7-8.3c-0.1-0.6-0.2-1.3-0.3-1.9c0-0.5-0.3-0.7-0.8-0.7c-1.1,0-2.2,0-3.3,0c-0.3,0-0.6,0-0.9-0.1v-3h4.9v-4
			h-4.9c0-1,0-1.9,0-2.8c0-0.2,0.5-0.4,0.7-0.4c1.4,0,2.7,0,4.1,0v-3.9h-4.8v-3.3h4.9v-4c-1.3,0-2.7,0-4,0c-0.7,0-1-0.2-0.9-0.9
			c0-0.7,0-1.4,0-2.3h4.9v-4.1h-4.9v-3.2h4.9c-0.1-3.8,0.9-7.2,3.8-9.7c2.7-2.4,5.9-3.8,9.7-3.8v-4.4h3.1V33h3.8c0-1.2,0-2.4,0-3.6
			c0-0.6,0.1-0.8,0.7-0.8c0.8,0,1.6,0,2.4,0V33h3.8v-4.4h3.1V33h3.7c0-1.2,0-2.5,0-3.7c0-0.5,0.2-0.7,0.7-0.7c0.8,0,1.6,0,2.5,0V33
			h3.7c0-1.1,0-2.2,0-3.3c0.1-1.3-0.2-1.2,1.2-1.2c0.6,0,1.2,0,1.9,0V33c8.2,0.8,13.1,4.7,13.4,13.3h5.4v3.3c-1.4,0-2.8,0-4.2,0
			c-1.3,0-1.3,0-1.3,1.3c0,0.8,0,1.7,0.1,2.5c0,0.1,0,0.1,0.1,0.3h5.3v3.2h-5.4v4.1c1.5,0,3,0.1,4.4,0c0.9,0,1.1,0.3,1.1,1.1
			c-0.1,0.6,0,1.3,0,2c-1.6,0-3,0.1-4.5,0c-0.8,0-1.1,0.2-1.1,1c0.1,1,0,2,0,3.1h5.5v3.1h-5.4L400.9,75.4L400.9,75.4z M382.3,73.9
			c-0.5-1.6-0.9-3.1-1.4-4.6c-1.4-4.6-2.9-9.2-4.4-13.7c-0.6-1.8-1.1-3.8-2.2-5.3c-3.2-4.6-9-4-12.5-0.8c-1.9,1.7-2.8,4-3.4,6.4
			c-1.3,5.2-2.5,10.3-3.8,15.5c-0.2,0.8-0.4,1.6-0.6,2.6c1.6,0,3.1,0,4.5,0c0.2,0,0.6-0.3,0.7-0.6c0.6-1.9,1.1-3.8,1.6-5.7
			c0.1-0.6,0.3-0.8,0.9-0.8c4.1,0,8.3,0,12.4-0.1c0.6,0,0.9,0.3,1.1,0.8c0.5,1.7,1.1,3.4,1.7,5.1c0.5,1.3,0.5,1.3,1.9,1.3
			C379.9,74,381.1,73.9,382.3,73.9L382.3,73.9z M390,64.1C390,64.1,390,64.1,390,64.1c-0.1-2.9-0.1-5.8-0.1-8.7c0-0.8-0.3-1-1-1
			c-0.9,0.1-1.8,0-2.6,0c-0.8-0.1-1.1,0.3-1.1,1.1c0,5.5,0,11,0,16.6c0,0.3,0,0.7,0.1,1c0.1,0.6,0.4,0.9,1,0.9c0.8,0,1.6,0,2.4,0
			c1.1,0,1.3-0.2,1.3-1.3C390,69.8,390,66.9,390,64.1L390,64.1z M390.5,48.3c0-2-1.2-3.4-3.1-3.5c-1.5,0-3,1.4-3.1,3
			c0,1.9,1.3,3.4,3,3.4C389.1,51.4,390.5,50.1,390.5,48.3z"/>
		<path d="M373.9,63.6h-11.5c0.1-0.5,0.1-0.8,0.2-1.2c0.3-1.8,0.6-3.5,1-5.3c0.7-2.9,3.2-4.5,5.9-3.6c0.9,0.3,1.6,0.8,1.9,1.7
			c0.6,1.9,1.2,3.8,1.7,5.8C373.4,61.9,373.7,62.7,373.9,63.6L373.9,63.6z"/>
	</g>
</g>
<g id="_图层_9_图像_00000175321445767890462550000000214472586763927944_">
	<g>
		<path d="M114,295.5c1.3,0,2.6,0,3.9,0c0.5,0,0.7,0.2,0.7,0.7c0,0.6,0,1.2,0,1.9h-4.4c-0.5,1.5-0.8,3-1.4,4.3
			c-1.6,3.5-6.7,6.8-11.5,4.6c-2.1-0.9-4.1-2.1-6.1-3.1c-2.6-1.3-5.4-2.1-8.2-1c-2,0.7-3.9,1.8-5.9,2.7c-1.5,0.7-3,1.4-4.6,1.9
			c-4.2,1.2-9.8-1.8-10.7-7c-0.1-0.5-0.2-1.1-0.2-1.6c0-0.4-0.2-0.6-0.6-0.6c-0.9,0-1.9,0-2.8,0c-0.3,0-0.5,0-0.7,0v-2.6h4.1v-3.4
			h-4.1c0-0.8,0-1.6,0-2.4c0-0.1,0.4-0.3,0.6-0.4c1.1,0,2.3,0,3.5,0v-3.3h-4.1v-2.8h4.1v-3.4c-1.1,0-2.2,0-3.4,0
			c-0.6,0-0.8-0.2-0.8-0.8c0-0.6,0-1.2,0-1.9h4.1v-3.5h-4.1v-2.7h4.1c-0.1-3.2,0.8-6,3.2-8.1c2.3-2,5-3.2,8.2-3.2v-3.7h2.6v3.7h3.2
			c0-1,0-2,0-3c0-0.5,0.1-0.7,0.6-0.7c0.7,0,1.3,0,2,0v3.7h3.2v-3.7h2.6v3.7h3.1c0-1,0-2.1,0-3.1c0-0.4,0.2-0.6,0.6-0.6
			c0.7,0,1.3,0,2.1,0v3.8h3.2c0-0.9,0-1.9,0-2.8c0-1.1-0.2-1,1-1c0.5,0,1,0,1.6,0v3.7c6.9,0.6,11,3.9,11.3,11.2h4.6v2.7
			c-1.2,0-2.4,0-3.6,0c-1.1,0-1.1,0-1.1,1.1c0,0.7,0,1.4,0.1,2.1c0,0,0,0.1,0.1,0.2h4.5v2.7H114v3.5c1.3,0,2.5,0,3.7,0
			c0.8,0,1,0.2,0.9,0.9c-0.1,0.5,0,1.1,0,1.7c-1.3,0-2.6,0.1-3.8,0c-0.7,0-0.9,0.2-0.9,0.9c0.1,0.8,0,1.7,0,2.6h4.6v2.6H114
			L114,295.5L114,295.5z M98.3,294.3c-0.4-1.4-0.8-2.6-1.1-3.9c-1.2-3.9-2.4-7.7-3.7-11.6c-0.5-1.5-1-3.2-1.9-4.5
			c-2.7-3.9-7.6-3.4-10.6-0.7c-1.6,1.4-2.3,3.3-2.9,5.4c-1.1,4.3-2.1,8.7-3.2,13.1c-0.2,0.7-0.3,1.4-0.5,2.2c1.4,0,2.6,0,3.8,0
			c0.2,0,0.5-0.3,0.6-0.5c0.5-1.6,0.9-3.2,1.3-4.8c0.1-0.5,0.3-0.7,0.8-0.7c3.5,0,7,0,10.5-0.1c0.5,0,0.7,0.2,0.9,0.7
			c0.5,1.4,0.9,2.9,1.4,4.3c0.4,1.1,0.4,1.1,1.6,1.1C96.3,294.3,97.2,294.3,98.3,294.3L98.3,294.3z M104.8,286
			C104.8,286,104.7,286,104.8,286c-0.1-2.4-0.1-4.9-0.1-7.3c0-0.7-0.2-0.9-0.9-0.8c-0.7,0-1.5,0-2.2,0c-0.7,0-0.9,0.2-0.9,0.9
			c0,4.7,0,9.3,0,14c0,0.3,0,0.6,0.1,0.9c0.1,0.5,0.3,0.8,0.9,0.8c0.7,0,1.3,0,2,0c1,0,1.1-0.1,1.1-1.1
			C104.8,290.8,104.8,288.4,104.8,286L104.8,286z M105.2,272.7c0-1.7-1-2.9-2.7-2.9c-1.3,0-2.5,1.2-2.6,2.6c0,1.6,1.1,2.9,2.5,2.9
			C104,275.3,105.2,274.2,105.2,272.7z"/>
		<path d="M91.2,285.5h-9.7c0.1-0.4,0.1-0.7,0.2-1c0.3-1.5,0.5-3,0.8-4.4c0.6-2.5,2.7-3.8,4.9-3c0.8,0.2,1.4,0.7,1.6,1.5
			c0.5,1.6,1,3.2,1.5,4.9C90.8,284.1,91,284.8,91.2,285.5L91.2,285.5z"/>
	</g>
</g>
<text transform="matrix(1 0 0 1 134.1058 265.5487)" class="st1 st3">智能记忆检索</text>
<text transform="matrix(1 0 0 1 134.4747 295.2943)"><tspan x="0" y="0" class="st4 st5">通过语义理解和高效索引，快速定位关键信息，</tspan><tspan x="0" y="21" class="st4 st5">确保AI实时调用相关记忆，提升响应准确性。</tspan></text>
<text transform="matrix(1 0 0 1 134.9122 383.0358)" class="st1 st3">极简集成使用</text>
<text transform="matrix(1 0 0 1 134.6936 412.0979)"><tspan x="0" y="0" class="st4 st5">兼容主流 AI 框架和大模型平台，可在几分钟内将</tspan><tspan x="0" y="21" class="st4 st5">记忆功能嵌入 AI 系统，共享记忆。</tspan></text>
<rect x="146.7" y="486.3" class="st6" width="1.8" height="16.9"/>
<text transform="matrix(1 0 0 1 134.2501 499.7778)" class="st1 st3">免费启动</text>
<text transform="matrix(1 0 0 1 134.0315 528.8398)"><tspan x="0" y="0" class="st4 st5">暂时免费体验使用，无使用限制，让你低成本验证</tspan><tspan x="0" y="21" class="st4 st5">记忆功能的价值。</tspan></text>
<g id="_图层_9_图像_00000111888486131469037730000003974573982718617261_">
	<g>
		<path d="M114,413.3c1.3,0,2.6,0,3.9,0c0.5,0,0.7,0.2,0.7,0.7c0,0.6,0,1.2,0,1.9h-4.4c-0.5,1.5-0.8,3-1.4,4.3
			c-1.6,3.5-6.7,6.8-11.5,4.6c-2.1-0.9-4.1-2.1-6.1-3.1c-2.6-1.3-5.4-2.1-8.2-1c-2,0.7-3.9,1.8-5.9,2.7c-1.5,0.7-3,1.4-4.6,1.9
			c-4.2,1.2-9.8-1.8-10.7-7c-0.1-0.5-0.2-1.1-0.2-1.6c0-0.4-0.2-0.6-0.6-0.6c-0.9,0-1.9,0-2.8,0c-0.3,0-0.5,0-0.7,0v-2.6h4.1V410
			h-4.1c0-0.8,0-1.6,0-2.4c0-0.1,0.4-0.3,0.6-0.4c1.1,0,2.3,0,3.5,0V404h-4.1v-2.8h4.1v-3.4c-1.1,0-2.2,0-3.4,0
			c-0.6,0-0.8-0.2-0.8-0.8c0-0.6,0-1.2,0-1.9h4.1v-3.5h-4.1v-2.7h4.1c-0.1-3.2,0.8-6,3.2-8.1c2.3-2,5-3.2,8.2-3.2v-3.7h2.6v3.7h3.2
			c0-1,0-2,0-3c0-0.5,0.1-0.7,0.6-0.7c0.7,0,1.3,0,2,0v3.7h3.2v-3.7h2.6v3.7h3.1c0-1,0-2.1,0-3.1c0-0.4,0.2-0.6,0.6-0.6
			c0.7,0,1.3,0,2.1,0v3.8h3.2c0-0.9,0-1.9,0-2.8c0-1.1-0.2-1,1-1c0.5,0,1,0,1.6,0v3.7c6.9,0.6,11,3.9,11.3,11.2h4.6v2.7
			c-1.2,0-2.4,0-3.6,0c-1.1,0-1.1,0-1.1,1.1c0,0.7,0,1.4,0.1,2.1c0,0,0,0.1,0.1,0.2h4.5v2.7H114v3.5c1.3,0,2.5,0,3.7,0
			c0.8,0,1,0.2,0.9,0.9c-0.1,0.5,0,1.1,0,1.7c-1.3,0-2.6,0.1-3.8,0c-0.7,0-0.9,0.2-0.9,0.9c0.1,0.8,0,1.7,0,2.6h4.6v2.6H114
			L114,413.3L114,413.3z M98.3,412c-0.4-1.4-0.8-2.6-1.1-3.9c-1.2-3.9-2.4-7.7-3.7-11.6c-0.5-1.5-1-3.2-1.9-4.5
			c-2.7-3.9-7.6-3.4-10.6-0.7c-1.6,1.4-2.3,3.3-2.9,5.4c-1.1,4.3-2.1,8.7-3.2,13.1c-0.2,0.7-0.3,1.4-0.5,2.2c1.4,0,2.6,0,3.8,0
			c0.2,0,0.5-0.3,0.6-0.5c0.5-1.6,0.9-3.2,1.3-4.8c0.1-0.5,0.3-0.7,0.8-0.7c3.5,0,7,0,10.5-0.1c0.5,0,0.7,0.2,0.9,0.7
			c0.5,1.4,0.9,2.9,1.4,4.3c0.4,1.1,0.4,1.1,1.6,1.1C96.3,412,97.2,412,98.3,412L98.3,412z M104.8,403.7
			C104.8,403.7,104.7,403.7,104.8,403.7c-0.1-2.4-0.1-4.9-0.1-7.3c0-0.7-0.2-0.9-0.9-0.8c-0.7,0-1.5,0-2.2,0c-0.7,0-0.9,0.2-0.9,0.9
			c0,4.7,0,9.3,0,14c0,0.3,0,0.6,0.1,0.9c0.1,0.5,0.3,0.8,0.9,0.8c0.7,0,1.3,0,2,0c1,0,1.1-0.1,1.1-1.1
			C104.8,408.5,104.8,406.1,104.8,403.7L104.8,403.7z M105.2,390.4c0-1.7-1-2.9-2.7-2.9c-1.3,0-2.5,1.2-2.6,2.6
			c0,1.6,1.1,2.9,2.5,2.9C104,393,105.2,391.9,105.2,390.4z"/>
		<path d="M91.2,403.3h-9.7c0.1-0.4,0.1-0.7,0.2-1c0.3-1.5,0.5-3,0.8-4.4c0.6-2.5,2.7-3.8,4.9-3c0.8,0.2,1.4,0.7,1.6,1.5
			c0.5,1.6,1,3.2,1.5,4.9C90.8,401.8,91,402.5,91.2,403.3L91.2,403.3z"/>
	</g>
</g>
<g id="_图层_9_图像_00000041982964050896231460000005304104146381671836_">
	<g>
		<path d="M114,521.3c1.3,0,2.6,0,3.9,0c0.5,0,0.7,0.2,0.7,0.7c0,0.6,0,1.2,0,1.9h-4.4c-0.5,1.5-0.8,3-1.4,4.3
			c-1.6,3.5-6.7,6.8-11.5,4.6c-2.1-0.9-4.1-2.1-6.1-3.1c-2.6-1.3-5.4-2.1-8.2-1c-2,0.7-3.9,1.8-5.9,2.7c-1.5,0.7-3,1.4-4.6,1.9
			c-4.2,1.2-9.8-1.8-10.7-7c-0.1-0.5-0.2-1.1-0.2-1.6c0-0.4-0.2-0.6-0.6-0.6c-0.9,0-1.9,0-2.8,0c-0.3,0-0.5,0-0.7,0v-2.6h4.1V518
			h-4.1c0-0.8,0-1.6,0-2.4c0-0.1,0.4-0.3,0.6-0.4c1.1,0,2.3,0,3.5,0V512h-4.1v-2.8h4.1v-3.4c-1.1,0-2.2,0-3.4,0
			c-0.6,0-0.8-0.2-0.8-0.8c0-0.6,0-1.2,0-1.9h4.1v-3.5h-4.1V497h4.1c-0.1-3.2,0.8-6,3.2-8.1c2.3-2,5-3.2,8.2-3.2v-3.7h2.6v3.7h3.2
			c0-1,0-2,0-3c0-0.5,0.1-0.7,0.6-0.7c0.7,0,1.3,0,2,0v3.7h3.2v-3.7h2.6v3.7h3.1c0-1,0-2.1,0-3.1c0-0.4,0.2-0.6,0.6-0.6
			c0.7,0,1.3,0,2.1,0v3.8h3.2c0-0.9,0-1.9,0-2.8c0-1.1-0.2-1,1-1c0.5,0,1,0,1.6,0v3.7c6.9,0.6,11,3.9,11.3,11.2h4.6v2.7
			c-1.2,0-2.4,0-3.6,0c-1.1,0-1.1,0-1.1,1.1c0,0.7,0,1.4,0.1,2.1c0,0,0,0.1,0.1,0.2h4.5v2.7H114v3.5c1.3,0,2.5,0,3.7,0
			c0.8,0,1,0.2,0.9,0.9c-0.1,0.5,0,1.1,0,1.7c-1.3,0-2.6,0.1-3.8,0c-0.7,0-0.9,0.2-0.9,0.9c0.1,0.8,0,1.7,0,2.6h4.6v2.6H114
			L114,521.3L114,521.3z M98.3,520.1c-0.4-1.4-0.8-2.6-1.1-3.9c-1.2-3.9-2.4-7.7-3.7-11.6c-0.5-1.5-1-3.2-1.9-4.5
			c-2.7-3.9-7.6-3.4-10.6-0.7c-1.6,1.4-2.3,3.3-2.9,5.4c-1.1,4.3-2.1,8.7-3.2,13.1c-0.2,0.7-0.3,1.4-0.5,2.2c1.4,0,2.6,0,3.8,0
			c0.2,0,0.5-0.3,0.6-0.5c0.5-1.6,0.9-3.2,1.3-4.8c0.1-0.5,0.3-0.7,0.8-0.7c3.5,0,7,0,10.5-0.1c0.5,0,0.7,0.2,0.9,0.7
			c0.5,1.4,0.9,2.9,1.4,4.3c0.4,1.1,0.4,1.1,1.6,1.1C96.3,520.1,97.2,520.1,98.3,520.1L98.3,520.1z M104.8,511.7
			C104.8,511.7,104.7,511.7,104.8,511.7c-0.1-2.4-0.1-4.9-0.1-7.3c0-0.7-0.2-0.9-0.9-0.8c-0.7,0-1.5,0-2.2,0c-0.7,0-0.9,0.2-0.9,0.9
			c0,4.7,0,9.3,0,14c0,0.3,0,0.6,0.1,0.9c0.1,0.5,0.3,0.8,0.9,0.8c0.7,0,1.3,0,2,0c1,0,1.1-0.1,1.1-1.1
			C104.8,516.6,104.8,514.1,104.8,511.7L104.8,511.7z M105.2,498.5c0-1.7-1-2.9-2.7-2.9c-1.3,0-2.5,1.2-2.6,2.6
			c0,1.6,1.1,2.9,2.5,2.9C104,501.1,105.2,499.9,105.2,498.5z"/>
		<path d="M91.2,511.3h-9.7c0.1-0.4,0.1-0.7,0.2-1c0.3-1.5,0.5-3,0.8-4.4c0.6-2.5,2.7-3.8,4.9-3c0.8,0.2,1.4,0.7,1.6,1.5
			c0.5,1.6,1,3.2,1.5,4.9C90.8,509.9,91,510.6,91.2,511.3L91.2,511.3z"/>
	</g>
</g>
</svg>
