<?xml version="1.0" encoding="UTF-8"?>
<svg xmlns="http://www.w3.org/2000/svg" viewBox="0 0 1817.23 359.82">
  <defs>
    <style>
      .cls-1 {
        stroke-width: 0px;
      }
    </style>
  </defs>
  <g id="_图层_9_图像" data-name="图层 9 图像">
    <g>
      <path class="cls-1" d="m365.98,275.1c9.33,0,18.28.14,27.22-.07,3.68-.08,5.07,1.07,4.78,4.84-.31,4.1-.07,8.24-.07,12.97h-30.35c-3.32,10.73-5.39,20.89-9.52,30.13-10.99,24.56-46.53,47.15-80.24,31.79-14.49-6.6-28.28-14.7-42.64-21.62-18.23-8.78-37.37-14.3-57.29-6.99-13.98,5.13-27.15,12.43-40.8,18.5-10.58,4.71-21.04,10.07-32.09,13.29-29.01,8.45-68.14-12.18-74.31-48.52-.64-3.75-1.3-7.52-1.6-11.3-.23-3-1.63-3.99-4.45-3.99-6.48,0-12.97-.12-19.45-.23-1.77-.03-3.53-.2-5.17-.3v-17.85h28.71v-23.56H.16c0-5.75-.21-11.18.2-16.57.07-.96,2.72-2.43,4.22-2.47,7.94-.25,15.89-.12,24.14-.12v-22.71H.38v-19.45h28.49v-23.46c-7.85,0-15.62-.18-23.39.07-4.09.13-5.7-1.23-5.42-5.38.28-4.11.06-8.25.06-13.43h28.7v-24.15H.26v-18.93h28.65c-.43-22.58,5.48-42.03,22.19-56.72,16.08-14.15,34.85-22.29,57.13-22.55V.39h18.17v25.69h22.07c0-7.03.18-14.14-.08-21.22-.13-3.43.78-4.89,4.38-4.72,4.6.22,9.21.05,14.11.05v25.82h22.03V.37h18.38v25.69h21.72c0-7.29.14-14.55-.07-21.81-.09-3.12,1.07-4.18,4.01-4.12,4.6.1,9.2.03,14.47.03v26.16h21.97c0-6.51-.23-12.92.06-19.31.33-7.47-1.15-6.99,7.03-7.01,3.46,0,6.91,0,10.9,0v25.85c47.85,4.48,76.66,27.48,78.74,77.91h31.7v19.11c-8.27,0-16.51-.01-24.75,0-7.58.02-7.62.03-7.54,7.59.05,4.98.21,9.96.35,14.95,0,.3.25.59.72,1.61h31.16v18.67h-31.84v24.06c8.87,0,17.49.34,26.07-.13,5.33-.29,6.68,1.64,6.17,6.53-.39,3.75-.08,7.57-.08,11.75-9.15,0-17.76.36-26.32-.14-4.95-.29-6.47,1.14-6.17,5.98.37,5.91.09,11.87.09,18.37h32.02v18.08h-31.75v24.9Zm-109.19-8.81c-2.83-9.61-5.25-18.35-7.97-27-8.48-26.91-16.83-53.85-25.73-80.62-3.54-10.64-6.64-22.06-12.93-31.04-18.87-26.97-52.77-23.46-73.48-4.87-11.13,9.99-16.35,23.26-19.84,37.26-7.54,30.26-14.77,60.6-22.12,90.91-1.15,4.73-2.25,9.48-3.62,15.27,9.48,0,17.92.16,26.35-.16,1.36-.05,3.41-1.99,3.84-3.44,3.34-11.12,6.56-22.29,9.35-33.56.84-3.38,1.92-4.59,5.49-4.59,24.26,0,48.52-.15,72.78-.47,3.79-.05,5.18,1.49,6.23,4.81,3.14,9.97,6.55,19.86,9.97,29.75,2.65,7.66,2.73,7.67,11.11,7.75,6.56.06,13.12.01,20.58.01Zm45.08-57.92c-.16,0-.31,0-.47,0,0-16.94-.16-33.88.11-50.81.08-4.73-1.56-6.07-6.01-5.82-5.13.3-10.31.25-15.44-.08-4.8-.31-6.26,1.53-6.24,6.28.12,32.38-.02,64.76-.04,97.14,0,1.99.19,3.98.4,5.96.37,3.56,2.43,5.31,5.97,5.36,4.65.05,9.3.1,13.96.1,6.72-.01,7.73-.96,7.76-7.82.06-16.77.02-33.54.02-50.31Zm3-92.36c.17-11.97-7.19-20.05-18.46-20.25-9.05-.16-17.71,8.46-17.95,17.86-.28,10.99,7.6,19.98,17.69,20.19,10.4.21,18.57-7.56,18.72-17.8Z"/>
      <path class="cls-1" d="m207.58,205.49h-67.28c.44-2.69.76-4.88,1.16-7.06,1.88-10.29,3.42-20.65,5.77-30.83,3.98-17.27,18.71-26.12,34.36-21.2,5.39,1.7,9.67,4.84,11.41,10.25,3.59,11.21,6.77,22.55,10.12,33.84,1.45,4.88,2.91,9.76,4.47,15Z"/>
    </g>
  </g>
  <g id="_图层_7_图像" data-name="图层 7 图像">
    <g>
      <path class="cls-1" d="m633.87,264.17c5.19-26.53,10.31-52.73,15.43-78.93-.3-.16-.6-.31-.91-.47-.88,1.38-1.87,2.71-2.62,4.16-12.45,24.3-24.85,48.62-37.37,72.88-.56,1.08-2.18,2.3-3.31,2.3-16.16.03-32.32-.13-48.48-.27-.29,0-.59-.28-1.39-.69-2.42-24.9-4.88-50.11-7.33-75.32-.38-.05-.76-.09-1.13-.14-1.11,5.56-2.23,11.12-3.34,16.68-3.67,18.46-7.33,36.92-11.03,55.37-.44,2.21-.48,4.59-3.99,4.55-18.16-.22-36.32-.24-54.49-.36-.46,0-.91-.3-1.84-.63.89-3.69,1.83-7.34,2.65-11.03,7.27-32.66,14.58-65.31,21.73-98,4.73-21.62,9.26-43.29,13.76-64.96.59-2.84,1.37-4.22,4.75-4.19,22.16.17,44.32.15,66.48-.02,3.82-.03,4.98.98,5.32,4.94,2.69,31.36,5.68,62.69,8.6,94.03.04.46.31.89.83,2.32,1.37-1.79,2.57-2.98,3.33-4.4,12.62-23.27,25.2-46.56,37.75-69.87,4.18-7.77,8.11-15.68,12.45-23.36.88-1.56,3.1-3.36,4.71-3.37,23.82-.21,47.65-.13,71.48-.11.31,0,.61.21,1.83.67-.7,3.8-1.38,7.79-2.16,11.76-10.4,52.93-20.81,105.86-31.21,158.79-.22,1.14-.58,2.31-.53,3.45.17,3.67-1.8,4.3-5,4.27-13.66-.13-27.33-.05-40.99-.05-4.31,0-8.61,0-13.99,0Z"/>
      <path class="cls-1" d="m940.19,269.64c-2.98-25.47-5.93-50.59-8.87-75.71h-1.24c-1.52,8.38-2.97,16.78-4.59,25.14-2.96,15.34-6.12,30.64-8.97,46.01-.67,3.6-1.98,4.89-5.81,4.84-17.8-.22-35.6-.1-54.15-.1,2.1-9.97,4.15-19.47,6.11-28.99,9.37-45.59,18.79-91.16,27.96-136.79.84-4.19,2.28-5.2,6.42-5.16,21.99.23,43.99.08,65.98.07,1.65,0,3.29,0,5.23,0,4.04,32.17,8.03,63.98,12.02,95.78.36.12.71.24,1.07.35.83-1.29,1.72-2.54,2.48-3.86,16.9-29.44,33.81-58.87,50.61-88.37,1.48-2.6,3.03-3.9,6.14-3.89,21.99.09,43.99.01,65.98,0,.63,0,1.26.19,2.64.41-11.05,56.77-22.06,113.32-33.12,170.18h-57.76c5.09-25.7,10.09-50.9,15.08-76.11-.32-.15-.63-.29-.95-.44-.74,1.14-1.56,2.24-2.21,3.43-12.94,23.46-25.84,46.94-38.85,70.35-.68,1.22-2.33,2.7-3.54,2.72-15.8.18-31.61.12-47.67.12Z"/>
      <path class="cls-1" d="m1281.57,270.97h-49.13c1.86-9.02,3.69-17.6,5.39-26.2,5.64-28.56,11.26-57.12,16.79-85.69.5-2.58.95-4.24,4.2-4.2,14,.2,27.99.17,41.99.25.63,0,1.25.25,2.32.48-.58,5.36-1.14,10.6-1.71,15.84.26.16.52.32.78.49,2.21-3.27,4.58-6.46,6.59-9.84,2.4-4.04,5.49-6.34,10.45-6.35,13.49-.02,26.97-.3,40.46-.51,3.2-.05,4.48,1.13,3.9,4.56-.66,3.9-.76,7.89-1.15,12.35,3.95-4.81,7.29-9.44,11.25-13.44,1.81-1.83,4.85-3.37,7.36-3.41,17.32-.29,34.66-.16,51.99-.14.47,0,.94.25,1.99.54-2.09,12.08-4,24.2-6.29,36.24-4.82,25.32-9.8,50.62-14.9,75.89-.27,1.36-2.23,3.39-3.43,3.41-15.81.23-31.63.15-48.32.15,5.25-25.49,10.38-50.43,15.62-75.88-5.54,0-10.5-.33-15.36.23-1.26.14-2.81,2.94-3.19,4.74-2.9,13.67-5.54,27.39-8.27,41.1-1.95,9.77-3.91,19.54-5.91,29.51h-45.42c4.89-25.22,9.71-50.1,14.62-75.42h-16.71c-5.27,24.98-10.58,50.12-15.9,75.32Z"/>
      <path class="cls-1" d="m797.42,147.82c13.98,0,27.97-.16,41.95.05,13.42.2,20.82,5.99,23.55,19.04.84,4.01-.04,8.55-.87,12.7-3.7,18.43-7.62,36.81-11.54,55.19-1.79,8.38-4.54,16.39-10.36,22.94-6.5,7.31-14.6,11.65-24.46,11.69-27.47.12-54.94.17-82.41-.08-15.17-.14-25.5-12.73-22.85-28.11,3.78-21.96,8.14-43.82,12.36-65.71,1.32-6.84,4.33-12.88,9.42-17.8,6.23-6.02,13.49-9.74,22.27-9.79,14.32-.09,28.64-.02,42.95-.02v-.08Zm6.85,40.64c-5.31,0-9.75-.03-14.19,0q-13.4.12-16.29,12.96c-.11.49-.3.96-.39,1.44-1.44,7.75-2.86,15.5-4.42,23.98,8.48,0,16.1.12,23.7-.13,1.19-.04,3.07-1.59,3.35-2.76,2.85-11.57,5.43-23.2,8.24-35.52Z"/>
      <path class="cls-1" d="m1663.13,335.55c2.59-8.09,5.11-15.96,7.64-23.82,1.58-4.9,3.54-9.72,4.67-14.72.75-3.31,2.45-3.73,5.26-3.71,7.33.07,14.66.08,21.98-.23,1.69-.07,4.13-1.06,4.85-2.38,3.64-6.65,6.83-13.56,10.32-20.66-5.24-.29-9.84-.54-15.13-.82-3.62-38.42-7.2-76.47-10.83-114.97h47.5v71.52c.38.09.76.19,1.13.28.46-.84,1.03-1.63,1.37-2.51,8.18-21.6,16.41-43.18,24.44-64.84,1.32-3.56,2.85-5.1,7.01-5,13.32.31,26.65.02,39.97-.02,1.11,0,2.22.18,3.91.33-1.23,2.96-2.25,5.54-3.37,8.08-21.92,49.39-43.84,98.78-65.81,148.15-1.42,3.19-3.17,6.23-4.76,9.33-4.64,9.04-11.67,15.52-22.02,15.83-19.09.57-38.22.16-58.13.16Z"/>
      <path class="cls-1" d="m1231,230.43c-3.39,13.12-3.95,27.25-16.88,35.02-4.81,2.89-10.74,5.41-16.2,5.49-34.31.5-68.64.27-102.96.27-.8,0-1.61-.14-3.08-.28.47-4.13.67-8.07,1.39-11.91,4.86-25.98,9.68-51.98,14.84-77.9,3.16-15.87,14.9-25.85,30.96-25.98,34.99-.27,69.98-.1,104.96-.11.48,0,.97.14,2.18.32-1.36,7.17-2.61,14.27-4.07,21.33-2.84,13.67-5.88,27.3-8.66,40.98-.63,3.09-1.83,4.28-5.17,4.56-25.05,2.09-50.08,4.44-75.11,6.72-.81.07-1.62.19-2.7.33-.42,2.15-.82,4.2-1.41,7.2,27.45.32,54.29-2.21,81.92-6.05Zm-43.1-40.39c-7.43,0-14.54-.05-21.64.01-8.1.08-8.1.12-8.92,9.26,7.66-.38,15.25-.8,22.84-1.1,7.31-.29,7.59-.53,7.72-8.17Z"/>
      <path class="cls-1" d="m1510.1,154.84c13.16,0,26.32-.09,39.48.01,16.17.13,25.33,10.05,22.74,26.16-2.79,17.38-6.75,34.59-10.52,51.8-1.38,6.3-2.98,12.72-5.68,18.52-5.91,12.7-16.1,19.67-30.41,19.69-25.32.04-50.65.05-75.97-.1-14.89-.09-25.34-11.06-23.04-25.65,3.49-22.16,7.64-44.25,12.6-66.12,3.53-15.54,15.92-24.19,31.8-24.29,12.99-.08,25.99-.02,38.98-.02Zm6.19,39.04c-8.28,0-15.91-.09-23.54.1-1.1.03-2.93,1.27-3.14,2.22-2.39,11-4.53,22.05-6.95,34.17,7.44,0,14.06-.2,20.66.08,3.5.15,5.19-1.18,5.89-4.43,2.28-10.53,4.62-21.05,7.07-32.15Z"/>
      <path class="cls-1" d="m1636.79,154.96c-1.19,7.53-2.3,14.47-3.4,21.42,7.05-8.63,12.78-19.11,24.7-21.22,9.01-1.59,18.4-1.06,28.3-1.5-3.02,14.73-5.78,28.19-8.63,42.05-6.2.65-12.45,1.28-18.68,1.98-2.48.28-4.95.7-7.42,1.07-13.06,1.93-21.42,8.48-23.85,22.25-2.91,16.52-6.69,32.88-10.16,49.67h-52.9c7.48-38.72,14.91-77.15,22.36-115.71h49.68Z"/>
    </g>
  </g>
</svg>