<?xml version="1.0" encoding="UTF-8"?>
<svg id="_图层_9_图像" data-name=" 图层 9 图像" xmlns="http://www.w3.org/2000/svg" viewBox="0 0 426.67 386.44">
  <defs>
    <style>
      .cls-1 {
        fill: #8b5cf6;
        stroke-width: 0px;
      }
    </style>
  </defs>
  <path class="cls-1" d="m381.46,286.86c9.33,0,18.28.14,27.22-.07,3.68-.08,5.07,1.07,4.78,4.84-.31,4.1-.07,8.24-.07,12.97h-30.35c-3.32,10.73-5.39,20.89-9.52,30.13-10.99,24.56-46.53,47.15-80.24,31.79-14.49-6.6-28.28-14.7-42.64-21.62-18.23-8.78-37.37-14.3-57.29-6.99-13.98,5.13-27.15,12.43-40.8,18.5-10.58,4.71-21.04,10.07-32.09,13.29-29.01,8.45-68.14-12.18-74.31-48.52-.64-3.75-1.3-7.52-1.6-11.3-.23-3-1.63-3.99-4.45-3.99-6.48,0-12.97-.12-19.45-.23-1.77-.03-3.53-.2-5.17-.3v-17.85h28.71v-23.56H15.65c0-5.75-.21-11.18.2-16.57.07-.96,2.72-2.43,4.22-2.47,7.94-.25,15.89-.12,24.14-.12v-22.71H15.87v-19.45h28.49v-23.46c-7.85,0-15.62-.18-23.39.07-4.09.13-5.7-1.23-5.42-5.38.28-4.11.06-8.25.06-13.43h28.7v-24.15H15.75v-18.93h28.65c-.43-22.58,5.48-42.03,22.19-56.72,16.08-14.15,34.85-22.29,57.13-22.55V12.14h18.17v25.69h22.07c0-7.03.18-14.14-.08-21.22-.13-3.43.78-4.89,4.38-4.72,4.6.22,9.21.05,14.11.05v25.82h22.03V12.13h18.38v25.69h21.72c0-7.29.14-14.55-.07-21.81-.09-3.12,1.07-4.18,4.01-4.12,4.6.1,9.2.03,14.47.03v26.16h21.97c0-6.51-.23-12.92.06-19.31.33-7.47-1.15-6.99,7.03-7.01h10.9v25.85c47.85,4.48,76.66,27.48,78.74,77.91h31.7v19.11c-8.27,0-16.51,0-24.75,0-7.58.02-7.62.03-7.54,7.59.05,4.98.21,9.96.35,14.95,0,.3.25.59.72,1.61h31.16v18.67h-31.84v24.06c8.87,0,17.49.34,26.07-.13,5.33-.29,6.68,1.64,6.17,6.53-.39,3.75-.08,7.57-.08,11.75-9.15,0-17.76.36-26.32-.14-4.95-.29-6.47,1.14-6.17,5.98.37,5.91.09,11.87.09,18.37h32.02v18.08h-31.75v24.9h.02Zm-109.19-8.81c-2.83-9.61-5.25-18.35-7.97-27-8.48-26.91-16.83-53.85-25.73-80.62-3.54-10.64-6.64-22.06-12.93-31.04-18.87-26.97-52.77-23.46-73.48-4.87-11.13,9.99-16.35,23.26-19.84,37.26-7.54,30.26-14.77,60.6-22.12,90.91-1.15,4.73-2.25,9.48-3.62,15.27,9.48,0,17.92.16,26.35-.16,1.36-.05,3.41-1.99,3.84-3.44,3.34-11.12,6.56-22.29,9.35-33.56.84-3.38,1.92-4.59,5.49-4.59,24.26,0,48.52-.15,72.78-.47,3.79-.05,5.18,1.49,6.23,4.81,3.14,9.97,6.55,19.86,9.97,29.75,2.65,7.66,2.73,7.67,11.11,7.75,6.56.06,13.12.01,20.58.01h0Zm45.08-57.92h-.47c0-16.94-.16-33.88.11-50.81.08-4.73-1.56-6.07-6.01-5.82-5.13.3-10.31.25-15.44-.08-4.8-.31-6.26,1.53-6.24,6.28.12,32.38-.02,64.76-.04,97.14,0,1.99.19,3.98.4,5.96.37,3.56,2.43,5.31,5.97,5.36,4.65.05,9.3.1,13.96.1,6.72-.01,7.73-.96,7.76-7.82.06-16.77.02-33.54.02-50.31h-.02Zm3-92.36c.17-11.97-7.19-20.05-18.46-20.25-9.05-.16-17.71,8.46-17.95,17.86-.28,10.99,7.6,19.98,17.69,20.19,10.4.21,18.57-7.56,18.72-17.8Z"/>
  <path class="cls-1" d="m223.07,217.24h-67.28c.44-2.69.76-4.88,1.16-7.06,1.88-10.29,3.42-20.65,5.77-30.83,3.98-17.27,18.71-26.12,34.36-21.2,5.39,1.7,9.67,4.84,11.41,10.25,3.59,11.21,6.77,22.55,10.12,33.84,1.45,4.88,2.91,9.76,4.47,15h-.01Z"/>
</svg>